<?xml version="1.0" standalone="no"?>
<!DOCTYPE svg PUBLIC "-//W3C//DTD SVG 20010904//EN"
 "http://www.w3.org/TR/2001/REC-SVG-20010904/DTD/svg10.dtd">
<svg version="1.0" xmlns="http://www.w3.org/2000/svg"
 width="700.000000pt" height="700.000000pt" viewBox="0 0 700.000000 700.000000"
 preserveAspectRatio="xMidYMid meet">
<metadata>
Created by potrace 1.11, written by Peter Selinger 2001-2013
</metadata>
<g transform="translate(0.000000,700.000000) scale(0.100000,-0.100000)"
fill="#000000" stroke="none">
<path d="M84 3502 l1 -2597 301 -3 301 -2 1 2017 c1 1110 1 2032 2 2048 l1 30
12 -25 c6 -14 26 -59 45 -100 19 -41 52 -113 73 -158 21 -46 39 -85 39 -87 0
-2 16 -39 36 -82 20 -43 70 -152 111 -243 41 -91 86 -190 100 -220 14 -30 59
-129 100 -220 41 -91 84 -185 95 -210 12 -25 33 -72 48 -105 32 -71 63 -138
100 -220 15 -33 71 -155 123 -271 53 -116 110 -242 128 -280 17 -38 51 -114
76 -169 24 -55 58 -129 75 -165 17 -36 47 -103 68 -150 21 -47 52 -116 70
-155 57 -123 65 -142 305 -670 97 -214 195 -429 218 -477 l41 -88 333 0 333 0
0 48 c0 53 0 4980 0 5085 l0 67 -295 0 -295 0 -1 -2032 0 -2033 -31 65 c-17
36 -42 90 -55 120 -14 30 -46 98 -70 150 -25 52 -53 113 -63 135 -10 22 -30
67 -45 100 -60 130 -390 845 -426 923 -22 46 -39 86 -39 88 0 1 -20 45 -44 96
-24 51 -69 147 -99 213 -30 66 -70 154 -90 195 -19 41 -57 125 -85 185 -27 61
-69 151 -92 200 -23 50 -73 158 -110 240 -37 83 -91 199 -119 258 -28 60 -51
110 -51 112 0 2 -21 47 -46 102 -25 54 -56 121 -69 148 -12 28 -37 82 -55 120
-60 129 -156 339 -220 478 l-63 137 -337 0 -337 -1 1 -2597z"/>
<path d="M3363 3501 l0 -2600 301 2 301 2 0 1178 0 1177 40 1 c22 0 173 1 335
2 l295 2 126 -195 c69 -107 156 -242 193 -300 97 -149 151 -233 450 -695 145
-225 298 -462 339 -525 41 -63 152 -235 247 -382 l172 -268 374 0 c206 0 374
2 374 6 0 3 -369 558 -820 1234 -451 676 -821 1234 -822 1240 -2 7 40 25 97
42 157 47 271 98 440 199 54 32 173 128 236 192 201 201 340 472 376 734 10
76 10 330 0 413 -11 81 -41 205 -72 290 -119 333 -404 600 -781 734 -129 46
-234 70 -444 101 -25 4 -430 9 -901 12 l-856 5 0 -2601z m1461 2068 c403 -9
695 -136 853 -369 31 -47 86 -179 99 -240 4 -19 8 -37 9 -40 15 -58 21 -234
11 -329 -38 -375 -360 -695 -781 -775 -16 -3 -43 -9 -60 -12 -50 -12 -977 -17
-984 -6 -5 8 -7 1731 -2 1764 1 4 29 8 64 10 65 3 604 1 791 -3z"/>
</g>
</svg>
